<svg xmlns="http://www.w3.org/2000/svg" version="1.1" xmlns:xlink="http://www.w3.org/1999/xlink" xmlns:svgjs="http://svgjs.com/svgjs" width="52.01" height="64.86"><svg id="SvgjsSvg1001" data-name="Layer 2" xmlns="http://www.w3.org/2000/svg" viewBox="0 0 52.01 64.86">
  <defs>
    <style>
      .cls-1 {
        fill: #ff3c74;
      }

      .cls-2 {
        fill: #ffa0cd;
      }

      .cls-3 {
        fill: #ffd6ec;
      }
    </style>
  </defs>
  <g id="SvgjsG1000" data-name="Layer 1">
    <g>
      <g>
        <g>
          <path class="cls-3" d="m43.49,27.91c1.9,1.82,2.74,4.53,2.88,7.09.1,2.47-.72,4.9-1.42,7.22-.63,2.06-1.07,4.27-1,6.42.08,1.41.24,2.92,1.24,3.81.25.19.51.26.84.28.81.04,1.43.73,1.38,1.54-.04.91-.95,1.57-1.83,1.34-3.22-.63-4.06-4.15-4-6.94.01-1.84.27-3.61.66-5.38.41-1.63.9-3.25.84-4.93-.03-2.93-.35-5.9-1.33-8.66,0,0-.06-.17-.06-.17-.02-.05-.04-.12-.04-.13l.67-1.3c.21-.43.82-.52,1.15-.18h0Z"></path>
          <path class="cls-3" d="m38.5,32.6c1.9,1.82,2.74,4.53,2.88,7.09.1,2.47-.72,4.9-1.42,7.22-.63,2.06-1.07,4.27-1,6.42.08,1.41.24,2.92,1.24,3.81.25.19.51.26.84.28.81.04,1.43.73,1.38,1.54-.04.91-.95,1.57-1.83,1.34-3.22-.63-4.06-4.15-4-6.94.01-1.84.27-3.61.66-5.38.41-1.63.9-3.25.84-4.93-.03-2.93-.35-5.9-1.33-8.66,0,0-.06-.17-.06-.17-.02-.05-.04-.12-.04-.13l.67-1.3c.21-.43.82-.52,1.15-.18h0Z"></path>
          <path class="cls-3" d="m31.46,27.32c1.9,1.82,2.74,4.53,2.88,7.09.1,2.47-.72,4.9-1.42,7.22-.63,2.06-1.07,4.27-1,6.42.08,1.41.24,2.92,1.24,3.81.25.19.51.26.84.28.81.04,1.43.73,1.38,1.54-.04.91-.95,1.57-1.83,1.34-3.22-.63-4.06-4.15-4-6.94.01-1.84.27-3.61.66-5.38.41-1.63.9-3.25.84-4.93-.03-2.93-.35-5.9-1.33-8.66,0,0-.06-.17-.06-.17-.02-.05-.04-.12-.04-.13l.67-1.3c.21-.43.82-.52,1.15-.18h0Z"></path>
          <path class="cls-3" d="m26.28,33.91c2.47,3.31,2.81,7.84,1.81,11.73-.88,3.59-2.41,7.05-2.36,10.79.02,1.9.18,3.96,1.21,5.55.06.07.12.13.15.16.03.03.06.01-.04-.05.72.36,1.02,1.23.66,1.95-.36.72-1.23,1.02-1.95.66-1.51-.9-1.88-2.8-2.18-4.34-.42-2.65-.25-5.28.24-7.88.44-2.42,1.46-4.75,1.42-7.24.04-3.3-.14-6.57-.91-9.78,0,0-.05-.2-.05-.2-.01-.06-.04-.14-.03-.16l.25-.87c.2-.78,1.31-.98,1.77-.33h0Z"></path>
          <path class="cls-3" d="m10.05,29.39c-.84,2.36-1.25,4.86-1.37,7.38-.08,1.04-.07,2.16.05,3.2.12,1.13.5,2.21.75,3.32.39,1.78.65,3.54.66,5.38.06,2.78-.79,6.31-4,6.94-.81.2-1.64-.3-1.8-1.13-.16-.79.35-1.56,1.14-1.73.38-.05.75-.06,1.05-.31,1-.88,1.16-2.4,1.24-3.81.06-1.87-.26-3.8-.76-5.61-.4-1.43-.89-2.83-1.23-4.31-.63-2.45-.57-5.07.33-7.46.43-1.15,1.05-2.25,1.91-3.13,0,0,.22-.21.22-.21.29-.28.74-.28,1.02,0,.07-.01.74,1.4.8,1.47h0Z"></path>
          <path class="cls-3" d="m15.04,34.08c-.84,2.36-1.25,4.86-1.37,7.38-.08,1.04-.07,2.16.05,3.2.12,1.13.5,2.21.75,3.32.39,1.78.65,3.54.66,5.38.06,2.78-.79,6.31-4,6.94-.81.2-1.64-.3-1.8-1.13-.16-.79.35-1.56,1.14-1.73.38-.05.75-.06,1.05-.31,1-.88,1.16-2.4,1.24-3.81.06-1.87-.26-3.8-.76-5.61-.4-1.43-.89-2.83-1.23-4.31-.63-2.45-.57-5.07.33-7.46.43-1.15,1.05-2.25,1.91-3.13,0,0,.22-.21.22-.21.29-.28.74-.28,1.02,0,.07-.01.74,1.4.8,1.47h0Z"></path>
          <path class="cls-3" d="m22.08,28.8c-.84,2.36-1.25,4.86-1.37,7.38-.08,1.04-.07,2.16.05,3.2.12,1.13.5,2.21.75,3.32.39,1.78.65,3.54.66,5.38.06,2.78-.79,6.31-4,6.94-.81.2-1.64-.3-1.8-1.13-.16-.79.35-1.56,1.14-1.73.38-.05.75-.06,1.05-.31,1-.88,1.16-2.4,1.24-3.81.06-1.87-.26-3.8-.76-5.61-.4-1.43-.89-2.83-1.23-4.31-.63-2.45-.57-5.07.33-7.46.43-1.15,1.05-2.25,1.91-3.13,0,0,.22-.21.22-.21.29-.28.74-.28,1.02,0,.07-.01.74,1.4.8,1.47h0Z"></path>
        </g>
        <g>
          <path class="cls-3" d="m7.44,52.93c2.07-2.16,1.22-5.9.75-8.51-.55-3.06-2.1-6.43-1.78-9.57.17-1.66.83-3.26,1.56-4.74"></path>
          <line class="cls-3" x1="5.35" y1="53.84" x2="6.66" y2="53.4"></line>
          <g>
            <path class="cls-3" d="m44.51,52.93c-2.07-2.16-1.22-5.9-.75-8.51.55-3.06,2.1-6.43,1.78-9.57-.17-1.66-.83-3.26-1.56-4.74"></path>
            <line class="cls-3" x1="46.6" y1="53.84" x2="45.29" y2="53.4"></line>
          </g>
          <g>
            <path class="cls-3" d="m39.23,57.56c-2.07-2.31-1.22-6.3-.75-9.09.55-3.27,2.1-6.87,1.78-10.22-.17-1.77-.83-3.48-1.56-5.06"></path>
            <line class="cls-3" x1="41.32" y1="58.53" x2="40.01" y2="58.06"></line>
          </g>
          <g>
            <path class="cls-3" d="m32.48,52.57c-2.12-2.26-1.36-6.27-.96-9.07.47-3.28,2.37-7.41,1.97-10.75-.21-1.76-1.34-2.97-2.1-4.53"></path>
            <line class="cls-3" x1="34.58" y1="53.54" x2="33.27" y2="53.07"></line>
          </g>
          <g>
            <path class="cls-3" d="m25.53,61.63c-.97-2.87-1.21-7.28-.08-10.5,1.27-3.63,2.12-5.55,2.16-9.65.02-2.16-1.46-7.07-1.75-9.02"></path>
            <line class="cls-3" x1="27.01" y1="63.4" x2="26.1" y2="62.3"></line>
          </g>
          <g>
            <path class="cls-3" d="m12.43,57.56c2.07-2.31,1.22-6.3.75-9.09-.55-3.27-2.1-6.87-1.78-10.22.17-1.77.83-3.48,1.56-5.06"></path>
            <line class="cls-3" x1="10.34" y1="58.53" x2="11.64" y2="58.06"></line>
          </g>
          <g>
            <path class="cls-3" d="m19.18,52.58c2.13-2.39,1.38-6.65.98-9.61-.46-3.48-2.34-6.38-1.93-9.92.22-1.87,1.34-4.63,2.11-6.29"></path>
            <line class="cls-3" x1="17.06" y1="53.5" x2="18.38" y2="53.06"></line>
          </g>
        </g>
      </g>
      <g>
        <g>
          <path class="cls-3" d="m51.81,26.75c0,2.62-2.13,4.75-4.75,4.75-.7,0-1.37-.15-1.97-.42-.75-.34-1.64-.06-1.98.68-.74,1.65-2.4,2.8-4.34,2.8-.9,0-1.74-.25-2.46-.68s-1.62-.22-2.04.5c-.83,1.4-2.35,2.33-4.09,2.33-1.22,0-2.34-.46-3.18-1.22-.58-.52-1.44-.52-2.03,0-.84.76-1.96,1.22-3.18,1.22-1.74,0-3.26-.94-4.09-2.33-.42-.71-1.33-.93-2.04-.5s-1.56.68-2.46.68c-1.93,0-3.59-1.15-4.34-2.8-.34-.75-1.23-1.02-1.98-.68-.6.27-1.26.42-1.97.42-2.62,0-4.75-2.13-4.75-4.75,0-1.75.95-3.28,2.35-4.1.44-.26.73-.71.75-1.21C3.85,9.61,13.61.2,25.57.2s21.48,9.2,22.24,20.82c.04.57.4,1.08.93,1.28,1.79.68,3.07,2.41,3.07,4.44Z"></path>
          <path class="cls-1" d="m30.2,36.91c-1.23,0-2.4-.45-3.31-1.27-.5-.45-1.26-.45-1.76,0-.91.82-2.09,1.27-3.31,1.27-1.74,0-3.37-.93-4.26-2.43-.17-.29-.45-.5-.78-.58-.34-.08-.69-.03-.99.15-.77.47-1.65.71-2.56.71-1.95,0-3.72-1.15-4.52-2.92-.13-.29-.37-.51-.67-.63-.33-.12-.71-.11-1.05.04-.65.29-1.33.44-2.05.44-2.73,0-4.95-2.22-4.95-4.95,0-1.75.94-3.39,2.45-4.27.39-.23.64-.62.66-1.05C3.66,9.41,13.53,0,25.57,0s21.67,9.23,22.44,21c.03.5.35.94.81,1.11,1.91.72,3.2,2.58,3.2,4.63,0,2.73-2.22,4.95-4.95,4.95-.71,0-1.4-.15-2.05-.44-.33-.15-.71-.17-1.05-.04-.3.11-.54.34-.67.63-.8,1.77-2.57,2.92-4.52,2.92-.9,0-1.79-.25-2.56-.71-.3-.18-.66-.24-.99-.15-.33.08-.6.29-.78.58-.89,1.5-2.52,2.43-4.26,2.43Zm-4.19-2.01c.41,0,.82.15,1.15.44.84.76,1.92,1.17,3.05,1.17,1.6,0,3.1-.86,3.92-2.24.23-.38.59-.66,1.02-.76.44-.11.9-.04,1.29.2.71.43,1.52.65,2.35.65,1.79,0,3.42-1.05,4.16-2.69.17-.39.49-.68.89-.83.43-.16.92-.14,1.35.05.59.27,1.23.41,1.88.41,2.51,0,4.55-2.04,4.55-4.56,0-1.88-1.18-3.6-2.94-4.26-.6-.23-1.02-.8-1.06-1.46C46.86,9.46,37.17.39,25.57.39S4.05,9.64,3.5,21.44c-.03.56-.34,1.08-.85,1.37-1.39.81-2.26,2.32-2.26,3.93,0,2.51,2.04,4.56,4.55,4.56.66,0,1.29-.14,1.88-.41.43-.19.92-.21,1.35-.05.4.15.72.45.89.83.73,1.63,2.36,2.69,4.16,2.69.83,0,1.65-.23,2.35-.65.39-.24.85-.31,1.29-.2.43.11.79.38,1.02.76.82,1.38,2.32,2.24,3.92,2.24,1.13,0,2.21-.42,3.05-1.17.33-.29.74-.44,1.15-.44Z"></path>
        </g>
        <ellipse class="cls-2" cx="13.76" cy="24.17" rx="4.46" ry="2.5"></ellipse>
        <ellipse class="cls-2" cx="37.91" cy="24.17" rx="4.46" ry="2.5"></ellipse>
        <path class="cls-1" d="m24.86,22.35c-.13,0-.27-.05-.37-.15-.23-.21-.24-.56-.04-.79l2.5-2.74c.21-.23.56-.24.79-.04.23.21.24.56.04.79l-2.5,2.74c-.11.12-.26.18-.41.18Z"></path>
        <path class="cls-1" d="m13.78,22.35c-.19,0-.38-.1-.48-.28-.15-.27-.06-.61.2-.76l2.16-1.25-2.16-1.25c-.27-.15-.36-.49-.2-.76.15-.27.49-.36.76-.2l2.23,1.28c.34.19.54.54.54.93s-.2.73-.54.93l-2.23,1.28c-.09.05-.18.07-.28.07Z"></path>
        <path class="cls-1" d="m38.3,22.35c-.09,0-.19-.02-.28-.07l-2.23-1.28c-.34-.19-.54-.54-.54-.93s.2-.73.54-.93l2.23-1.28c.27-.15.61-.06.76.2.15.27.06.61-.2.76l-2.16,1.25,2.16,1.25c.27.15.36.49.2.76-.1.18-.29.28-.48.28Z"></path>
      </g>
    </g>
  </g>
</svg><style>@media (prefers-color-scheme: light) { :root { filter: none; } }
</style></svg>