<?xml version="1.0" encoding="UTF-8"?>
<svg id="Layer_2" data-name="Layer 2" xmlns="http://www.w3.org/2000/svg" xmlns:xlink="http://www.w3.org/1999/xlink" viewBox="0 0 215.71 221.97">
  <defs>
    <style>
      .cls-1, .cls-2, .cls-3, .cls-4, .cls-5, .cls-6, .cls-7 {
        fill: none;
      }

      .cls-1, .cls-2, .cls-3, .cls-8, .cls-9 {
        stroke: #ff3c74;
      }

      .cls-1, .cls-2, .cls-4, .cls-5, .cls-6, .cls-8, .cls-10, .cls-9 {
        stroke-miterlimit: 10;
      }

      .cls-1, .cls-2, .cls-8, .cls-10 {
        stroke-width: 1.5px;
      }

      .cls-1, .cls-3, .cls-4 {
        stroke-linecap: round;
      }

      .cls-11 {
        fill: #ff3c74;
      }

      .cls-12, .cls-8 {
        fill: #fff;
      }

      .cls-13 {
        fill: #fff2ac;
      }

      .cls-14 {
        fill: #ffd6ec;
      }

      .cls-15 {
        fill: #ffd1c4;
      }

      .cls-3 {
        stroke-linejoin: round;
        stroke-width: 4px;
      }

      .cls-4 {
        stroke-width: 2px;
      }

      .cls-4, .cls-6 {
        stroke: #ffd6ec;
      }

      .cls-5, .cls-10 {
        stroke: #ffd1c4;
      }

      .cls-10 {
        fill: #f7ebe8;
      }

      .cls-9 {
        fill: #ffa0cd;
        stroke-width: .75px;
      }

      .cls-7 {
        clip-path: url(#clippath);
      }
    </style>
    <clipPath id="clippath">
      <path class="cls-8" d="m195.67,91.27c0,8.95-7.26,16.21-16.2,16.21-2.39,0-4.66-.52-6.7-1.45-2.54-1.16-5.6-.21-6.75,2.33-2.53,5.64-8.2,9.56-14.78,9.56-3.07,0-5.93-.85-8.38-2.33s-5.51-.74-6.95,1.69c-2.82,4.76-8.01,7.96-13.94,7.96-4.17,0-7.98-1.58-10.85-4.17-1.98-1.79-4.93-1.79-6.91,0-2.87,2.59-6.68,4.17-10.85,4.17-5.93,0-11.12-3.2-13.94-7.96-1.44-2.43-4.53-3.15-6.95-1.69s-5.31,2.33-8.38,2.33c-6.59,0-12.25-3.92-14.78-9.56-1.14-2.55-4.2-3.49-6.75-2.33-2.04.93-4.31,1.45-6.7,1.45-8.94,0-16.2-7.26-16.2-16.21,0-5.97,3.22-11.18,8.02-13.99,1.49-.87,2.49-2.41,2.57-4.14C32.14,32.85,65.41.75,106.17.75s73.25,31.36,75.84,70.99c.13,1.96,1.35,3.68,3.19,4.38,6.12,2.31,10.47,8.22,10.47,15.15Z"/>
    </clipPath>
  </defs>
  <g id="Layer_1-2" data-name="Layer 1">
    <g>
      <g>
        <g>
          <path class="cls-10" d="m167.28,95.23c6.48,6.2,9.33,15.44,9.82,24.17.33,8.42-2.45,16.71-4.84,24.61-2.15,7.02-3.64,14.57-3.4,21.88.26,4.81.81,9.97,4.22,12.98.86.65,1.75.9,2.85.96,2.75.14,4.87,2.49,4.72,5.24-.13,3.12-3.22,5.37-6.23,4.58-10.96-2.15-13.83-14.15-13.64-23.65.05-6.29.91-12.3,2.25-18.36,1.4-5.55,3.06-11.06,2.88-16.82-.1-9.98-1.18-20.11-4.53-29.53,0,0-.19-.57-.19-.57-.05-.16-.15-.4-.12-.46l2.28-4.42c.73-1.46,2.78-1.79,3.92-.63h0Z"/>
          <path class="cls-10" d="m150.28,111.23c6.48,6.2,9.33,15.44,9.82,24.17.33,8.42-2.45,16.71-4.84,24.61-2.15,7.02-3.64,14.57-3.4,21.88.26,4.81.81,9.97,4.22,12.98.86.65,1.75.9,2.85.96,2.75.14,4.87,2.49,4.72,5.24-.13,3.12-3.22,5.37-6.23,4.58-10.96-2.15-13.83-14.15-13.64-23.65.05-6.29.91-12.3,2.25-18.36,1.4-5.55,3.06-11.06,2.88-16.82-.1-9.98-1.18-20.11-4.53-29.53,0,0-.19-.57-.19-.57-.05-.16-.15-.4-.12-.46l2.28-4.42c.73-1.46,2.78-1.79,3.92-.63h0Z"/>
          <path class="cls-10" d="m126.28,93.23c6.48,6.2,9.33,15.44,9.82,24.17.33,8.42-2.45,16.71-4.84,24.61-2.15,7.02-3.64,14.57-3.4,21.88.26,4.81.81,9.97,4.22,12.98.86.65,1.75.9,2.85.96,2.75.14,4.87,2.49,4.72,5.24-.13,3.12-3.22,5.37-6.23,4.58-10.96-2.15-13.83-14.15-13.64-23.65.05-6.29.91-12.3,2.25-18.36,1.4-5.55,3.06-11.06,2.88-16.82-.1-9.98-1.18-20.11-4.53-29.53,0,0-.19-.57-.19-.57-.05-.16-.15-.4-.12-.46l2.28-4.42c.73-1.46,2.78-1.79,3.92-.63h0Z"/>
          <path class="cls-10" d="m108.61,115.71c8.41,11.27,9.57,26.74,6.18,40.01-3.02,12.23-8.22,24.02-8.06,36.78.06,6.49.63,13.49,4.14,18.93.2.25.4.46.53.54.12.1.2.04-.15-.18,2.46,1.22,3.47,4.2,2.25,6.66-1.22,2.46-4.2,3.47-6.66,2.25-5.14-3.07-6.41-9.56-7.44-14.8-1.44-9.02-.87-18.02.81-26.87,1.49-8.26,4.96-16.2,4.86-24.68.12-11.27-.49-22.41-3.09-33.35,0,0-.16-.67-.16-.67-.04-.2-.13-.47-.1-.55l.86-2.96c.68-2.66,4.45-3.34,6.03-1.12h0Z"/>
          <path class="cls-10" d="m53.28,100.27c-2.88,8.06-4.28,16.57-4.68,25.15-.26,3.55-.25,7.37.16,10.91.42,3.85,1.7,7.52,2.56,11.32,1.35,6.05,2.21,12.07,2.25,18.36.19,9.49-2.69,21.51-13.64,23.65-2.76.7-5.58-1.04-6.14-3.84-.55-2.7,1.19-5.34,3.89-5.89,1.3-.16,2.55-.19,3.58-1.05,3.41-3.02,3.96-8.17,4.22-12.98.2-6.36-.88-12.96-2.6-19.13-1.37-4.89-3.03-9.66-4.2-14.7-2.15-8.36-1.93-17.27,1.13-25.43,1.46-3.92,3.57-7.67,6.51-10.69,0,0,.74-.73.74-.73.97-.96,2.54-.94,3.49.03.24-.04,2.53,4.78,2.71,5.01h0Z"/>
          <path class="cls-10" d="m70.28,116.27c-2.88,8.06-4.28,16.57-4.68,25.15-.26,3.55-.25,7.37.16,10.91.42,3.85,1.7,7.52,2.56,11.32,1.35,6.05,2.21,12.07,2.25,18.36.19,9.49-2.69,21.51-13.64,23.65-2.76.7-5.58-1.04-6.14-3.84-.55-2.7,1.19-5.34,3.89-5.89,1.3-.16,2.55-.19,3.58-1.05,3.41-3.02,3.96-8.17,4.22-12.98.2-6.36-.88-12.96-2.6-19.13-1.37-4.89-3.03-9.66-4.2-14.7-2.15-8.36-1.93-17.27,1.13-25.43,1.46-3.92,3.57-7.67,6.51-10.69,0,0,.74-.73.74-.73.97-.96,2.54-.94,3.49.03.24-.04,2.53,4.78,2.71,5.01h0Z"/>
          <path class="cls-10" d="m94.28,98.27c-2.88,8.06-4.28,16.57-4.68,25.15-.26,3.55-.25,7.37.16,10.91.42,3.85,1.7,7.52,2.56,11.32,1.35,6.05,2.21,12.07,2.25,18.36.19,9.49-2.69,21.51-13.64,23.65-2.76.7-5.58-1.04-6.14-3.84-.55-2.7,1.19-5.34,3.89-5.89,1.3-.16,2.55-.19,3.58-1.05,3.41-3.02,3.96-8.17,4.22-12.98.2-6.36-.88-12.96-2.6-19.13-1.37-4.89-3.03-9.66-4.2-14.7-2.15-8.36-1.93-17.27,1.13-25.43,1.46-3.92,3.57-7.67,6.51-10.69,0,0,.74-.73.74-.73.97-.96,2.54-.94,3.49.03.24-.04,2.53,4.78,2.71,5.01h0Z"/>
        </g>
        <g>
          <path class="cls-12" d="m45.08,181.26c6.46-6.91,5.07-17.3,3.56-25.81-.93-5.29-2.17-10.44-3.61-15.61-1.56-5.58-3.17-11.26-3.32-17.09-.17-6.91,2.33-13.38,5.32-19.49.56-1.15-1.16-2.17-1.73-1.01-2.52,5.14-4.73,10.5-5.41,16.23s.44,11.42,1.85,16.9c2.54,9.92,5.76,19.85,6.12,30.18.18,5.09-.6,10.43-4.2,14.29-.88.94.53,2.36,1.41,1.41h0Z"/>
          <path class="cls-12" d="m37.08,183.17c.39-1.28,1.18-1.4,1.95-1.58.38-.09.79-.11,1.2-.12.58.03,1.95.03,1.71.98-.46.83-1.24,1.34-2.03,1.75-.72.32-1.42.7-2.51-.08-.31-.22-.42-.61-.32-.95h0Z"/>
          <g>
            <path class="cls-12" d="m171.47,179.84c-6.48-6.93-4.14-17.96-2.61-26.32.99-5.42,2.51-10.66,3.95-15.97s2.84-11.2,2.59-16.94c-.28-6.49-2.76-12.6-5.58-18.37-.57-1.16-2.29-.14-1.73,1.01,2.66,5.43,5.04,11.24,5.31,17.36.25,5.8-1.18,11.51-2.7,17.06s-2.92,10.66-3.92,16.12c-.82,4.46-1.6,8.99-1.54,13.54.06,5.07,1.27,10.14,4.81,13.92.88.94,2.29-.47,1.41-1.41h0Z"/>
            <path class="cls-12" d="m177.73,184.12c-1.09.78-1.79.39-2.51.08-.65-.33-2.77-1.6-1.79-2.45.87-.38,1.8-.31,2.67-.16.76.19,1.55.3,1.95,1.58.11.36-.03.74-.32.95h0Z"/>
          </g>
          <g>
            <path class="cls-12" d="m153.47,195.63c-3.28-3.74-4.2-8.78-4.23-13.62s.82-9.91,1.66-14.8c.99-5.73,2.51-11.31,3.94-16.94s2.76-11.67,2.57-17.63c-.22-6.99-2.71-13.61-5.59-19.89-.54-1.17-2.26-.15-1.73,1.01,2.67,5.82,5.02,11.99,5.3,18.46s-1.17,12.39-2.71,18.39c-1.43,5.56-2.86,11.06-3.83,16.72-.84,4.91-1.67,9.87-1.62,14.86.05,5.35,1.21,10.74,4.81,14.85.85.97,2.26-.45,1.41-1.41h0Z"/>
            <path class="cls-12" d="m159.72,200.12c-1.11.76-1.81.35-2.53.02-.64-.34-2.76-1.66-1.76-2.49.88-.37,1.82-.27,2.69-.1.77.2,1.56.34,1.93,1.63.1.36-.04.74-.34.94h0Z"/>
          </g>
          <g>
            <path class="cls-12" d="m130.44,178.61c-3.63-3.95-4.56-9.41-4.58-14.6s.81-10.26,1.56-15.35c1.75-11.72,7.49-23.02,6.9-35.06-.16-3.25-1.03-6.26-2.52-9.14s-3.46-5.69-4.95-8.68c-.57-1.15-2.3-.14-1.73,1.01,2.71,5.44,6.78,10.12,7.17,16.44s-1.14,12.22-2.71,18.08-3.32,11.51-4.19,17.44c-.74,5.06-1.56,10.13-1.55,15.26.02,5.74,1.16,11.66,5.16,16.01.87.95,2.28-.47,1.41-1.41h0Z"/>
            <path class="cls-12" d="m136.72,183.12c-1.11.76-1.81.35-2.53.02-.64-.34-2.76-1.66-1.76-2.49.88-.37,1.82-.27,2.69-.1.77.2,1.56.34,1.93,1.63.1.36-.04.74-.34.94h0Z"/>
          </g>
          <g>
            <path class="cls-12" d="m107.01,209.95c-2.27-6.79-3.04-14.11-2.75-21.25.15-3.76.63-7.51,1.59-11.14s2.39-7.07,3.6-10.58c2.23-6.43,3.92-12.91,4.44-19.72.24-3.14.38-6.29-.01-9.43-.36-2.92-.94-5.81-1.56-8.69-1.35-6.21-3.22-12.37-4.18-18.66-.19-1.27-2.12-.73-1.93.53.84,5.49,2.42,10.88,3.66,16.29.68,3,1.34,6.02,1.81,9.07s.5,5.8.35,8.76c-.35,6.99-1.89,13.64-4.14,20.24-1.2,3.51-2.61,6.98-3.66,10.54s-1.59,7.12-1.86,10.75c-.58,7.94.19,16.24,2.71,23.81.41,1.21,2.34.69,1.93-.53h0Z"/>
            <path class="cls-12" d="m110.69,216.57c-1.35.07-1.76-.64-2.22-1.31-.38-.63-1.58-2.85-.3-3.08.96.13,1.74.72,2.42,1.33.57.58,1.19,1.11.87,2.43-.09.37-.41.62-.77.64h0Z"/>
          </g>
          <g>
            <path class="cls-12" d="m62.08,197.05c6.67-7.61,5.01-18.89,3.47-28.05-.92-5.49-2.14-10.84-3.55-16.22-1.58-6.02-3.2-12.16-3.3-18.43-.12-7.24,2.35-14.1,5.33-20.6.53-1.16-1.19-2.18-1.73-1.01-2.56,5.59-4.8,11.39-5.43,17.54s.49,12,1.88,17.8c2.52,10.53,5.68,21.03,6.1,31.92.22,5.46-.45,11.35-4.19,15.62-.85.96.56,2.38,1.41,1.41h0Z"/>
            <path class="cls-12" d="m54.07,199.17c.37-1.29,1.16-1.43,1.93-1.63.38-.1.79-.13,1.21-.15.58.02,1.95-.01,1.74.94-.44.84-1.22,1.37-2.01,1.8-.72.33-1.41.74-2.53-.02-.31-.21-.44-.6-.34-.94h0Z"/>
          </g>
          <g>
            <path class="cls-12" d="m85.1,180.07c7.38-8.48,5.31-21.34,3.92-31.52-.42-3.03-.9-6.02-1.69-8.98-.86-3.26-1.94-6.46-2.91-9.68-1.87-6.23-3.21-12.68-1.92-19.17s3.93-12.87,6.71-18.89c.54-1.16-1.19-2.18-1.73-1.01-2.47,5.33-4.72,10.84-6.24,16.52-1.63,6.09-1.52,12.14-.07,18.26s4.02,12.45,5.22,18.89c1.02,5.45,1.71,11.13,1.88,16.68.18,6.05-.46,12.74-4.59,17.49-.84.97.57,2.39,1.41,1.41h0Z"/>
            <path class="cls-12" d="m77.03,182.01c.4-1.28,1.2-1.4,1.97-1.58.39-.09.8-.11,1.21-.12.58.03,1.95.03,1.71.98-.46.83-1.26,1.34-2.05,1.75-.73.32-1.43.7-2.52-.08-.31-.22-.42-.61-.32-.95h0Z"/>
          </g>
        </g>
      </g>
      <g>
        <path class="cls-12" d="m195.67,91.27c0,8.95-7.26,16.21-16.2,16.21-2.39,0-4.66-.52-6.7-1.45-2.54-1.16-5.6-.21-6.75,2.33-2.53,5.64-8.2,9.56-14.78,9.56-3.07,0-5.93-.85-8.38-2.33s-5.51-.74-6.95,1.69c-2.82,4.76-8.01,7.96-13.94,7.96-4.17,0-7.98-1.58-10.85-4.17-1.98-1.79-4.93-1.79-6.91,0-2.87,2.59-6.68,4.17-10.85,4.17-5.93,0-11.12-3.2-13.94-7.96-1.44-2.43-4.53-3.15-6.95-1.69s-5.31,2.33-8.38,2.33c-6.59,0-12.25-3.92-14.78-9.56-1.14-2.55-4.2-3.49-6.75-2.33-2.04.93-4.31,1.45-6.7,1.45-8.94,0-16.2-7.26-16.2-16.21,0-5.97,3.22-11.18,8.02-13.99,1.49-.87,2.49-2.41,2.57-4.14C32.14,32.85,65.41.75,106.17.75s73.25,31.36,75.84,70.99c.13,1.96,1.35,3.68,3.19,4.38,6.12,2.31,10.47,8.22,10.47,15.15Z"/>
        <g class="cls-7">
          <g>
            <path class="cls-13" d="m202.42,74.52c-2.07-2.8-4.19-5.35-6.89-7.53-.55-.45-1.11-.89-1.67-1.33-.07-1.08-.14-2.16-.25-3.24-.44-4.34-1.01-8.71-1.96-12.98-1.57-7.06-4.31-14.03-7.74-20.39-6.5-12.06-16.52-22.42-27.69-30.25-21.61-15.15-49.9-24.35-76.43-21.65-5.68.58-11.28,1.59-16.9,2.54-.82.14-1.71.21-2.55.36-.07,0-.13.02-.2.02-2.65.23-5.3.27-7.96.16-8.63-.36-16.89,7.84-16.5,16.5.41,9.24,7.25,16.12,16.5,16.5,5.83.24,11.82.63,17.29-1.37,29.21-10.63,58.06-5.94,79.21,17.37,11.13,12.27,16.66,28.83,19.73,44.87.24,1.28.5,2.58,1.19,3.69,3.58,5.73,15.42,7.17,10.86,16.71-1.26,2.64-3.98,4.52-6.89,4.79-4.16.37-6.16-.7-8.3,3.38-1.57,3.01-1.42,6.68-3.04,9.68-1,1.86-2.44,3.57-3.32,5.43,1.54.02,3.16-.52,4.72-.88,9.45-2.22,14.13,9.73,22.58,5.92,12.22-5.52,22.28-15.26,22.34-29.56.03-6.6-2.2-13.45-6.11-18.75Z"/>
            <path class="cls-13" d="m189.55,62.51s.04.06.06.1c-.18-.11-.35-.24-.53-.35-1.01-.62-.85-.54.47.25Z"/>
          </g>
          <path class="cls-13" d="m167.67,103.25c-2.42,2.87-6.3,6.22-10,7-4.54.96-8,2-14.87-1.62-3.3-1.74-5.95,3.32-7.92,5.07-4.63,4.12-11.77,4.95-17.55,3.15-2.37-.74-5.67-2.59-7.67-2.59-3.51,0-8.66,2.15-13.77,2.45-9.23.55-14.39-7.51-17.23-8.45-3.41-1.14-7.41.69-10.94.47-5.52-.34-10.39-2.88-14.76-6.12-1.89-1.4-3.39-3.24-5.87-3.4s-4.92,1.04-7.43,1.04c-7.28,0-10-4-12-10-1.87-5.62.86-11.01,4-16,5.16-8.19-6.98-16.94-12.12-8.79-11.55,18.35-.1,47.7,22.77,46.72.85,1.42,2.26,2.57,4.32,3.13,2.14.58,3.75,2.17,5.54,3.42,2.29,1.59,4.83,2.79,7.47,3.67,4.23,1.41,8.03,1.07,12.13.91.57.43,1.18.75,1.81.97.31.21.64.41,1.02.59,6.3,3.07,12.62,5.92,19.66,6.67,3.09.33,6.18.21,9.23-.42,1.81-.37,3.47-1.2,5.15-1.91,13.05,5.85,27.79,4.09,38.2-5.66,10.77,2.24,22.32-1.35,29.51-9.88,6.18-7.34-2.48-17.82-8.71-10.43Z"/>
        </g>
        <path class="cls-2" d="m195.67,91.27c0,8.95-7.26,16.21-16.2,16.21-2.39,0-4.66-.52-6.7-1.45-2.54-1.16-5.6-.21-6.75,2.33-2.53,5.64-8.2,9.56-14.78,9.56-3.07,0-5.93-.85-8.38-2.33s-5.51-.74-6.95,1.69c-2.82,4.76-8.01,7.96-13.94,7.96-4.17,0-7.98-1.58-10.85-4.17-1.98-1.79-4.93-1.79-6.91,0-2.87,2.59-6.68,4.17-10.85,4.17-5.93,0-11.12-3.2-13.94-7.96-1.44-2.43-4.53-3.15-6.95-1.69s-5.31,2.33-8.38,2.33c-6.59,0-12.25-3.92-14.78-9.56-1.14-2.55-4.2-3.49-6.75-2.33-2.04.93-4.31,1.45-6.7,1.45-8.94,0-16.2-7.26-16.2-16.21,0-5.97,3.22-11.18,8.02-13.99,1.49-.87,2.49-2.41,2.57-4.14C32.14,32.85,65.41.75,106.17.75s73.25,31.36,75.84,70.99c.13,1.96,1.35,3.68,3.19,4.38,6.12,2.31,10.47,8.22,10.47,15.15Z"/>
      </g>
      <ellipse class="cls-14" cx="62.71" cy="84.23" rx="16.04" ry="8.98"/>
      <ellipse class="cls-14" cx="149.63" cy="84.23" rx="16.04" ry="8.98"/>
      <line class="cls-3" x1="102.67" y1="75.68" x2="111.67" y2="65.82"/>
      <path class="cls-3" d="m62.78,75.71l8.01-4.62c1.23-.71,1.23-2.5,0-3.21l-8.01-4.62"/>
      <path class="cls-3" d="m151.03,63.25l-8.01,4.62c-1.23.71-1.23,2.5,0,3.21l8.01,4.62"/>
      <g>
        <path class="cls-12" d="m116.18,16.18c10.33,4.55,19.17,12.28,25.49,22.07"/>
        <path class="cls-15" d="m117.59,12.97c10.56,2.27,20.44,9.26,26.44,18.19,3.11,7.24-3.36,11.91-9.59,7.16-.89-.7-1.78-2.06-2.53-2.91-3.32-3.97-6.94-7.6-10.89-10.98-2.02-1.73-4.14-3.39-6.33-5.12-2.94-2.29-.7-7.08,2.91-6.34h0Z"/>
      </g>
      <circle class="cls-15" cx="48.97" cy="64.63" r="3.38"/>
      <circle class="cls-14" cx="180.97" cy="171.63" r="3.38"/>
      <circle class="cls-14" cx="13.97" cy="154.63" r="3.38"/>
      <circle class="cls-15" cx="73.46" cy="16.86" r="2.21"/>
      <circle class="cls-15" cx="82.99" cy="14.37" r="1.73"/>
      <circle class="cls-15" cx="98.99" cy="36.37" r="1.73"/>
      <circle class="cls-15" cx="139.99" cy="58.37" r="1.73"/>
      <circle class="cls-14" cx="23.99" cy="185.37" r="1.73"/>
      <circle class="cls-14" cx="159.99" cy="187.37" r="1.73"/>
      <circle class="cls-14" cx="94.99" cy="216.37" r="1.73"/>
      <circle class="cls-15" cx="90.99" cy="58.37" r="1.73"/>
      <circle class="cls-14" cx="197.99" cy="173.37" r="1.73"/>
      <circle class="cls-15" cx="173.99" cy="64.37" r="1.73"/>
      <circle class="cls-14" cx="214.45" cy="128.87" r="1.26"/>
      <circle class="cls-14" cx="137.45" cy="211.87" r="1.26"/>
      <circle class="cls-15" cx="148.45" cy="46.87" r="1.26"/>
      <circle class="cls-15" cx="128.45" cy="59.87" r="1.26"/>
      <circle class="cls-14" cx="204.45" cy="149.87" r="1.26"/>
      <circle class="cls-14" cx="19.45" cy="163.87" r="1.26"/>
      <circle class="cls-14" cx="2.45" cy="157.87" r="1.26"/>
      <circle class="cls-15" cx="62" cy="24.4" r=".8"/>
      <circle class="cls-15" cx="91" cy="10.4" r=".8"/>
      <circle class="cls-14" cx="115.56" cy="183.21" r="2.53"/>
      <circle class="cls-14" cx="73.56" cy="201.21" r="2.53"/>
      <circle class="cls-15" cx="146.56" cy="23.21" r="2.53"/>
      <circle class="cls-15" cx="48.46" cy="40.86" r="3.21"/>
      <circle class="cls-15" cx="58.67" cy="37.25" r="2"/>
      <circle class="cls-14" cx="29.67" cy="121.25" r="2"/>
      <circle class="cls-6" cx="89.46" cy="191.86" r="3.21"/>
      <circle class="cls-6" cx="33.46" cy="171.86" r="3.21"/>
      <circle class="cls-5" cx="124.46" cy="41.86" r="3.21"/>
      <circle class="cls-5" cx="102.46" cy="10.86" r="3.21"/>
      <circle class="cls-6" cx="192.46" cy="151.86" r="3.21"/>
      <circle class="cls-5" cx="43.46" cy="52.86" r="3.21"/>
      <circle class="cls-5" cx="99.91" cy="23.41" r="1.66"/>
      <circle class="cls-5" cx="135.91" cy="45.41" r="1.66"/>
      <circle class="cls-5" cx="37.91" cy="63.41" r="1.66"/>
      <circle class="cls-5" cx="58.91" cy="50.41" r="1.66"/>
      <g>
        <path class="cls-11" d="m24.02,129.41c0,9.89-5.22,16.22-15.62,16.22h-2.25c-2.98,0-4.78-2.08-4.78-4.53s1.81-4.48,4.78-4.48h1.42c4.54,0,7.08-1.57,7.08-6.66v-12.57c0-2.82,2.15-4.44,4.68-4.44s4.68,1.62,4.68,4.44v12.02Z"/>
        <path class="cls-9" d="m23.02,127.41c0,9.89-5.22,16.22-15.62,16.22h-2.25c-2.98,0-4.78-2.08-4.78-4.53s1.81-4.48,4.78-4.48h1.42c4.54,0,7.08-1.57,7.08-6.66v-12.57c0-2.82,2.15-4.44,4.68-4.44s4.68,1.62,4.68,4.44v12.02Z"/>
      </g>
      <g>
        <path class="cls-11" d="m31.18,164.54c-3.12,0-4.68-1.53-4.68-4.53v-23.48c0-3,1.56-4.53,4.68-4.53h16.1c2.98,0,4.73,2.08,4.73,4.53s-1.76,4.53-4.73,4.53h-11.37v3.1h9.47c2.73,0,4.34,1.9,4.34,4.11s-1.61,4.11-4.34,4.11h-9.47v3.14h11.37c2.98,0,4.73,2.03,4.73,4.48s-1.76,4.53-4.73,4.53h-16.1Z"/>
        <path class="cls-9" d="m30.18,162.54c-3.12,0-4.68-1.53-4.68-4.53v-23.48c0-3,1.56-4.53,4.68-4.53h16.1c2.98,0,4.73,2.08,4.73,4.53s-1.76,4.53-4.73,4.53h-11.37v3.1h9.47c2.73,0,4.34,1.9,4.34,4.11s-1.61,4.11-4.34,4.11h-9.47v3.14h11.37c2.98,0,4.73,2.03,4.73,4.48s-1.76,4.53-4.73,4.53h-16.1Z"/>
      </g>
      <g>
        <path class="cls-11" d="m60.75,179.59c-3.12,0-4.68-1.53-4.68-4.53v-23.71c0-2.82,2.15-4.44,4.68-4.44s4.73,1.62,4.73,4.44v19.23h5.03c2.93,0,4.49,2.03,4.49,4.48s-1.56,4.53-4.49,4.53h-9.76Z"/>
        <path class="cls-9" d="m59.75,177.59c-3.12,0-4.68-1.53-4.68-4.53v-23.71c0-2.82,2.15-4.44,4.68-4.44s4.73,1.62,4.73,4.44v19.23h5.03c2.93,0,4.49,2.03,4.49,4.48s-1.56,4.53-4.49,4.53h-9.76Z"/>
      </g>
      <g>
        <path class="cls-11" d="m75.39,164.35c-3.12,0-4.68-1.53-4.68-4.53v-23.71c0-2.82,2.15-4.44,4.68-4.44s4.73,1.62,4.73,4.44v19.23h5.03c2.93,0,4.49,2.03,4.49,4.48s-1.56,4.53-4.49,4.53h-9.76Z"/>
        <path class="cls-9" d="m74.39,162.35c-3.12,0-4.68-1.53-4.68-4.53v-23.71c0-2.82,2.15-4.44,4.68-4.44s4.73,1.62,4.73,4.44v19.23h5.03c2.93,0,4.49,2.03,4.49,4.48s-1.56,4.53-4.49,4.53h-9.76Z"/>
      </g>
      <g>
        <path class="cls-11" d="m104.84,145.3c.98-1.62,2.54-2.31,4.05-2.31,2.49,0,4.88,1.94,4.88,4.39,0,.79-.24,1.62-.78,2.45l-7.61,11.74v9.8c0,2.96-2.2,4.48-4.73,4.48s-4.73-1.53-4.73-4.48v-9.8l-7.71-11.79c-.54-.79-.78-1.53-.78-2.26,0-2.5,2.39-4.53,4.93-4.53,1.37,0,3.03.65,4,2.26l4.25,7.03,4.25-6.98Z"/>
        <path class="cls-9" d="m103.84,143.3c.98-1.62,2.54-2.31,4.05-2.31,2.49,0,4.88,1.94,4.88,4.39,0,.79-.24,1.62-.78,2.45l-7.61,11.74v9.8c0,2.96-2.2,4.48-4.73,4.48s-4.73-1.53-4.73-4.48v-9.8l-7.71-11.79c-.54-.79-.78-1.53-.78-2.26,0-2.5,2.39-4.53,4.93-4.53,1.37,0,3.03.65,4,2.26l4.25,7.03,4.25-6.98Z"/>
      </g>
      <g>
        <path class="cls-11" d="m126.19,160.11c0,2.96-2.2,4.48-4.73,4.48s-4.68-1.53-4.68-4.48v-23.48c0-3,1.56-4.53,4.68-4.53h16.1c2.98,0,4.73,2.08,4.73,4.53s-1.76,4.53-4.73,4.53h-11.37v3.14h9.27c2.93,0,4.54,1.94,4.54,4.3s-1.61,4.3-4.54,4.3h-9.27v7.21Z"/>
        <path class="cls-9" d="m125.19,158.11c0,2.96-2.2,4.48-4.73,4.48s-4.68-1.53-4.68-4.48v-23.48c0-3,1.56-4.53,4.68-4.53h16.1c2.98,0,4.73,2.08,4.73,4.53s-1.76,4.53-4.73,4.53h-11.37v3.14h9.27c2.93,0,4.54,1.94,4.54,4.3s-1.61,4.3-4.54,4.3h-9.27v7.21Z"/>
      </g>
      <g>
        <path class="cls-11" d="m152.12,175.29c0,2.96-2.2,4.48-4.73,4.48s-4.73-1.53-4.73-4.48v-23.94c0-2.82,2.15-4.44,4.73-4.44s4.73,1.62,4.73,4.44v23.94Z"/>
        <path class="cls-9" d="m151.12,173.29c0,2.96-2.2,4.48-4.73,4.48s-4.73-1.53-4.73-4.48v-23.94c0-2.82,2.15-4.44,4.73-4.44s4.73,1.62,4.73,4.44v23.94Z"/>
      </g>
      <g>
        <path class="cls-11" d="m170.94,164.54h-9.42c-3.12,0-4.68-2.22-4.68-4.53s1.61-4.48,4.78-4.48h9.86c1.32,0,1.9-.88,1.9-1.66,0-.88-.59-1.76-1.9-1.76h-4.88c-6.69,0-10.1-2.96-10.1-9.66s3.61-10.45,10.78-10.45h7.61c3.27,0,4.98,2.26,4.98,4.48s-1.71,4.58-5.03,4.58h-8.2c-1.32,0-1.85.83-1.85,1.71,0,.79.54,1.66,1.85,1.66h4.88c6.88,0,10.1,3.05,10.1,9.75s-3.56,10.35-10.69,10.35Z"/>
        <path class="cls-9" d="m169.94,162.54h-9.42c-3.12,0-4.68-2.22-4.68-4.53s1.61-4.48,4.78-4.48h9.86c1.32,0,1.9-.88,1.9-1.66,0-.88-.59-1.76-1.9-1.76h-4.88c-6.69,0-10.1-2.96-10.1-9.66s3.61-10.45,10.78-10.45h7.61c3.27,0,4.98,2.26,4.98,4.48s-1.71,4.58-5.03,4.58h-8.2c-1.32,0-1.85.83-1.85,1.71,0,.79.54,1.66,1.85,1.66h4.88c6.88,0,10.1,3.05,10.1,9.75s-3.56,10.35-10.69,10.35Z"/>
      </g>
      <g>
        <path class="cls-11" d="m209.67,141.33c0,2.96-2.2,4.48-4.78,4.48s-4.68-1.53-4.68-4.48v-7.72h-7.71v7.72c0,2.96-2.2,4.48-4.78,4.48s-4.68-1.53-4.68-4.48v-23.94c0-2.82,2.15-4.44,4.68-4.44s4.78,1.62,4.78,4.44v7.76h7.71v-7.76c0-2.82,2.15-4.44,4.68-4.44s4.78,1.62,4.78,4.44v23.94Z"/>
        <path class="cls-9" d="m208.67,139.33c0,2.96-2.2,4.48-4.78,4.48s-4.68-1.53-4.68-4.48v-7.72h-7.71v7.72c0,2.96-2.2,4.48-4.78,4.48s-4.68-1.53-4.68-4.48v-23.94c0-2.82,2.15-4.44,4.68-4.44s4.78,1.62,4.78,4.44v7.76h7.71v-7.76c0-2.82,2.15-4.44,4.68-4.44s4.78,1.62,4.78,4.44v23.94Z"/>
      </g>
      <path class="cls-5" d="m157.24,28.77l.95,1.92c.13.27.39.46.7.51l2.12.31c.76.11,1.06,1.04.51,1.58l-1.53,1.49c-.22.21-.32.52-.27.82l.36,2.11c.13.75-.66,1.33-1.34.97l-1.89-1c-.27-.14-.59-.14-.86,0l-1.89,1c-.68.36-1.47-.22-1.34-.97l.36-2.11c.05-.3-.05-.61-.27-.82l-1.53-1.49c-.55-.53-.25-1.47.51-1.58l2.12-.31c.3-.04.56-.23.7-.51l.95-1.92c.34-.69,1.32-.69,1.66,0Z"/>
      <path class="cls-6" d="m6.57,120.62l.67,1.36c.1.19.28.33.49.36l1.5.22c.54.08.75.74.36,1.12l-1.09,1.06c-.15.15-.23.37-.19.58l.26,1.5c.09.54-.47.94-.95.69l-1.34-.71c-.19-.1-.42-.1-.61,0l-1.34.71c-.48.25-1.04-.16-.95-.69l.26-1.5c.04-.21-.03-.43-.19-.58l-1.09-1.06c-.39-.38-.17-1.04.36-1.12l1.5-.22c.21-.03.4-.17.49-.36l.67-1.36c.24-.49.94-.49,1.18,0Z"/>
      <path class="cls-6" d="m134.57,158.62l.67,1.36c.1.19.28.33.49.36l1.5.22c.54.08.75.74.36,1.12l-1.09,1.06c-.15.15-.23.37-.19.58l.26,1.5c.09.54-.47.94-.95.69l-1.34-.71c-.19-.1-.42-.1-.61,0l-1.34.71c-.48.25-1.04-.16-.95-.69l.26-1.5c.04-.21-.03-.43-.19-.58l-1.09-1.06c-.39-.38-.17-1.04.36-1.12l1.5-.22c.21-.03.4-.17.49-.36l.67-1.36c.24-.49.94-.49,1.18,0Z"/>
      <path class="cls-5" d="m72.24,36.77l.95,1.92c.13.27.39.46.7.51l2.12.31c.76.11,1.06,1.04.51,1.58l-1.53,1.49c-.22.21-.32.52-.27.82l.36,2.11c.13.75-.66,1.33-1.34.97l-1.89-1c-.27-.14-.59-.14-.86,0l-1.89,1c-.68.36-1.47-.22-1.34-.97l.36-2.11c.05-.3-.05-.61-.27-.82l-1.53-1.49c-.55-.53-.25-1.47.51-1.58l2.12-.31c.3-.04.56-.23.7-.51l.95-1.92c.34-.69,1.32-.69,1.66,0Z"/>
      <path class="cls-6" d="m122.24,191.77l.95,1.92c.13.27.39.46.7.51l2.12.31c.76.11,1.06,1.04.51,1.58l-1.53,1.49c-.22.21-.32.52-.27.82l.36,2.11c.13.75-.66,1.33-1.34.97l-1.89-1c-.27-.14-.59-.14-.86,0l-1.89,1c-.68.36-1.47-.22-1.34-.97l.36-2.11c.05-.3-.05-.61-.27-.82l-1.53-1.49c-.55-.53-.25-1.47.51-1.58l2.12-.31c.3-.04.56-.23.7-.51l.95-1.92c.34-.69,1.32-.69,1.66,0Z"/>
      <path class="cls-5" d="m164.9,44.9l1.2,2.43c.17.35.5.59.88.64l2.68.39c.96.14,1.34,1.32.65,2l-1.94,1.89c-.28.27-.4.66-.34,1.04l.46,2.67c.16.96-.84,1.69-1.7,1.23l-2.4-1.26c-.34-.18-.75-.18-1.09,0l-2.4,1.26c-.86.45-1.86-.28-1.7-1.23l.46-2.67c.07-.38-.06-.77-.34-1.04l-1.94-1.89c-.7-.68-.31-1.86.65-2l2.68-.39c.38-.06.71-.3.88-.64l1.2-2.43c.43-.87,1.67-.87,2.1,0Z"/>
      <path class="cls-1" d="m28.87,99.06s9.57.32,13.8-8.81"/>
      <path class="cls-1" d="m26.15,88.51s5.84,3.29,11.42-.56"/>
      <path class="cls-1" d="m184.95,98.06s-9.57.32-13.8-8.81"/>
      <path class="cls-1" d="m187.67,87.51s-5.84,3.29-11.42-.56"/>
      <path class="cls-1" d="m158.55,109.76s-4.69-.07-5.88-5.51"/>
      <path class="cls-1" d="m151.35,112.69s-4.32-1.82-3.38-7.31"/>
      <path class="cls-1" d="m56.83,107.76s4.69-.07,5.88-5.51"/>
      <path class="cls-1" d="m64.04,110.69s4.32-1.82,3.38-7.31"/>
      <path class="cls-1" d="m127,118.72s-4.1-1.52-3.54-6.42"/>
      <path class="cls-1" d="m119.8,118.9s-3.25-2.86-.81-7.13"/>
      <path class="cls-1" d="m88.08,118.72s4.1-1.52,3.54-6.42"/>
      <path class="cls-1" d="m95.28,118.9s3.25-2.86.81-7.13"/>
      <path class="cls-4" d="m19.39,118.06l.24,9.46c.2,7.79-4.73,12.9-14.78,13.16"/>
      <circle class="cls-14" cx="19.67" cy="115.25" r="1"/>
      <g>
        <circle class="cls-14" cx="45.67" cy="132.63" r="1"/>
        <line class="cls-4" x1="29.44" y1="132.63" x2="42.63" y2="132.63"/>
      </g>
      <g>
        <circle class="cls-14" cx="136.67" cy="132.63" r="1"/>
        <line class="cls-4" x1="120.44" y1="132.63" x2="133.63" y2="132.63"/>
      </g>
      <g>
        <circle class="cls-14" cx="174.67" cy="132.63" r="1"/>
        <line class="cls-4" x1="164.67" y1="132.63" x2="171.63" y2="132.63"/>
      </g>
      <circle class="cls-14" cx="58.06" cy="149.01" r="1"/>
      <line class="cls-4" x1="58.06" y1="173.25" x2="58.06" y2="152.05"/>
      <g>
        <circle class="cls-14" cx="73.06" cy="134.01" r="1"/>
        <line class="cls-4" x1="73.06" y1="158.25" x2="73.06" y2="137.05"/>
      </g>
      <g>
        <circle class="cls-14" cx="145.06" cy="149.01" r="1"/>
        <line class="cls-4" x1="145.06" y1="173.25" x2="145.06" y2="152.05"/>
      </g>
      <g>
        <circle class="cls-14" cx="185.06" cy="115.01" r="1"/>
        <line class="cls-4" x1="185.06" y1="139.25" x2="185.06" y2="118.05"/>
      </g>
      <g>
        <circle class="cls-14" cx="88.67" cy="145.25" r="1"/>
        <line class="cls-4" x1="95.1" y1="154.97" x2="90.35" y2="147.79"/>
      </g>
    </g>
  </g>
</svg>